<?xml version="1.0" encoding="UTF-8" standalone="no"?><!DOCTYPE svg PUBLIC "-//W3C//DTD SVG 1.1//EN" "http://www.w3.org/Graphics/SVG/1.1/DTD/svg11.dtd"><svg width="158px" height="107px" version="1.1" xmlns="http://www.w3.org/2000/svg" xmlns:xlink="http://www.w3.org/1999/xlink" xml:space="preserve" xmlns:serif="http://www.serif.com/" style="fill-rule:evenodd;clip-rule:evenodd;stroke-linejoin:round;stroke-miterlimit:2;"><g><rect x="0" y="-0" width="157.402" height="106.931" style="fill:white;"/><g><g><path d="M27.684,71.955L39.465,72.034L44.145,67.282L53.865,79.954L67.761,79.954L52.065,59.29L66.825,44.242L52.857,44.242L39.465,58.21L39.465,28.978L27.657,28.978L27.684,71.955Z" style="fill-rule:nonzero;"/><path d="M81.841,42.162C74.569,42.162 67.873,45.186 64.705,50.946L74.209,54.402C75.433,52.314 78.025,51.162 81.049,51.162C84.865,51.162 89.257,53.61 89.257,61.098C89.257,68.298 84.937,70.818 81.049,70.818C77.737,70.818 75.361,69.45 74.281,66.642L64.489,70.242C67.585,76.866 74.353,79.818 81.985,79.818C93.073,79.818 101.281,72.474 101.281,61.17C101.281,49.794 94.801,42.162 81.841,42.162Z" style="fill-rule:nonzero;"/></g><path d="M106.001,84.265L115.112,84.265C124.018,84.265 127.512,80.635 127.512,72.825L127.512,65.495C127.512,60.631 128.745,59.193 133.745,58.987L133.745,49.944C128.745,49.739 127.512,48.3 127.512,43.436L127.512,36.106C127.512,28.297 124.018,24.666 115.112,24.666L106.001,24.666L106.001,33.435L113.057,33.435C116.003,33.435 116.893,34.051 116.893,36.449L116.893,45.012C116.893,50.424 118.743,52.616 123.607,54.26L123.607,54.671C118.743,56.315 116.893,58.508 116.893,63.919L116.893,72.483C116.893,74.88 116.003,75.497 113.057,75.497L106.001,75.497L106.001,84.265Z" style="fill-rule:nonzero;"/></g></g></svg>